<svg xmlns="http://www.w3.org/2000/svg" width="54" height="54" viewBox="0 0 54 54" fill="none">
<circle cx="27" cy="27" r="27" fill="black"/>
<path d="M36.5808 31.5037C36.2218 32.3333 35.7967 33.0969 35.3043 33.7989C34.633 34.756 34.0834 35.4184 33.6598 35.7863C33.0032 36.3901 32.2997 36.6994 31.5464 36.717C31.0056 36.717 30.3534 36.5631 29.5942 36.2509C28.8325 35.9402 28.1325 35.7863 27.4925 35.7863C26.8212 35.7863 26.1013 35.9402 25.3312 36.2509C24.56 36.5631 23.9387 36.7258 23.4637 36.7419C22.7413 36.7727 22.0213 36.4546 21.3025 35.7863C20.8438 35.3862 20.27 34.7003 19.5826 33.7286C18.8451 32.6909 18.2388 31.4876 17.7637 30.1158C17.255 28.634 17 27.1992 17 25.8101C17 24.2188 17.3438 22.8464 18.0325 21.6963C18.5738 20.7725 19.2939 20.0438 20.1951 19.5089C21.0963 18.9739 22.0701 18.7013 23.1187 18.6839C23.6925 18.6839 24.445 18.8614 25.38 19.2102C26.3125 19.5602 26.9112 19.7377 27.1737 19.7377C27.3699 19.7377 28.035 19.5301 29.1625 19.1164C30.2288 18.7327 31.1287 18.5738 31.8659 18.6364C33.8636 18.7976 35.3644 19.5851 36.3625 21.0038C34.5758 22.0863 33.6921 23.6025 33.7097 25.5476C33.7258 27.0626 34.2754 28.3233 35.3556 29.3243C35.8451 29.7889 36.3918 30.148 37 30.403C36.8681 30.7856 36.7289 31.152 36.5808 31.5037V31.5037ZM31.9993 13.475C31.9993 14.6625 31.5654 15.7712 30.7007 16.7975C29.6572 18.0174 28.395 18.7224 27.0262 18.6112C27.0088 18.4687 26.9987 18.3188 26.9987 18.1612C26.9987 17.0213 27.4949 15.8013 28.3762 14.8038C28.8162 14.2987 29.3758 13.8788 30.0544 13.5438C30.7315 13.2137 31.372 13.0313 31.9744 13C31.9919 13.1587 31.9993 13.3175 31.9993 13.475V13.475Z" fill="white"/>
</svg>