<svg width="54" height="54" viewBox="0 0 54 54" fill="none" xmlns="http://www.w3.org/2000/svg">
<circle cx="27" cy="27" r="27" fill="#1877F2"/>
<ellipse cx="27" cy="26.9083" rx="15" ry="14.9083" fill="white"/>
<path d="M44 25C44 15.6111 36.3888 7.99998 27 7.99998C17.6112 7.99998 10 15.6111 10 25C10 33.4852 16.2167 40.5181 24.3437 41.7935V29.914H20.0273V25H24.3437V21.2547C24.3437 16.994 26.8817 14.6406 30.7649 14.6406C32.6248 14.6406 34.5703 14.9726 34.5703 14.9726V19.1562H32.4267C30.3148 19.1562 29.6562 20.4667 29.6562 21.811V25H34.3711L33.6174 29.914H29.6562V41.7935C37.7833 40.5181 44 33.4852 44 25Z" fill="#1877F2"/>
</svg>
